<svg xmlns="http://www.w3.org/2000/svg" width="1200" height="630" viewBox="0 0 1200 630" role="img" aria-label="RWA Tokenization 2026: Gold, Silver &amp; Real Estate">
  <defs>
    <linearGradient id="bg" x1="0" y1="0" x2="1" y2="1"><stop offset="0" stop-color="#080A11"/><stop offset="0.5" stop-color="#0E1426"/><stop offset="1" stop-color="#070912"/></linearGradient>
    <radialGradient id="g1" cx="0.22" cy="0.2" r="0.6"><stop offset="0" stop-color="#2E6BFF" stop-opacity="0.6"/><stop offset="1" stop-color="#2E6BFF" stop-opacity="0"/></radialGradient>
    <radialGradient id="g2" cx="0.85" cy="0.3" r="0.55"><stop offset="0" stop-color="#13C29B" stop-opacity="0.4"/><stop offset="1" stop-color="#13C29B" stop-opacity="0"/></radialGradient>
    <linearGradient id="accent" x1="0" y1="0" x2="1" y2="1"><stop offset="0" stop-color="#5B8DEF"/><stop offset="1" stop-color="#2E6BFF"/></linearGradient>
    <linearGradient id="glass" x1="0" y1="0" x2="0" y2="1"><stop offset="0" stop-color="#FFFFFF" stop-opacity="0.10"/><stop offset="1" stop-color="#FFFFFF" stop-opacity="0.02"/></linearGradient>
    <linearGradient id="title" x1="0" y1="0" x2="0" y2="1"><stop offset="0" stop-color="#FFFFFF"/><stop offset="1" stop-color="#C3D0E8"/></linearGradient>
    <filter id="blur" x="-80%" y="-80%" width="260%" height="260%"><feGaussianBlur stdDeviation="50"/></filter>
    <filter id="soft" x="-50%" y="-50%" width="200%" height="200%"><feDropShadow dx="0" dy="22" stdDeviation="28" flood-color="#000" flood-opacity="0.55"/></filter>
    <filter id="glow" x="-100%" y="-100%" width="300%" height="300%"><feGaussianBlur stdDeviation="10" result="b"/><feMerge><feMergeNode in="b"/><feMergeNode in="SourceGraphic"/></feMerge></filter>
  </defs>

  <rect width="1200" height="630" fill="url(#bg)"/>
  <rect width="1200" height="630" fill="url(#g1)"/>
  <rect width="1200" height="630" fill="url(#g2)"/>
  <g stroke="#FFFFFF" stroke-opacity="0.03" stroke-width="1"><path d="M0 157 H1200 M0 315 H1200 M300 0 V630 M600 0 V630 M900 0 V630"/></g>
  <rect x="0" y="0" width="1200" height="5" fill="url(#accent)"/>

  <g transform="translate(80,70)">
    <path d="M0 0 L26 10 L26 26 C26 42 13 50 13 50 C13 50 0 42 0 26 Z" fill="url(#accent)"/>
    <text x="40" y="34" font-family="'Space Grotesk',Arial,sans-serif" font-size="27" font-weight="700" fill="#FFFFFF">Crypto<tspan fill="#5B8DEF">Watchdog</tspan></text>
  </g>
  <g transform="translate(970,74)">
    <rect width="150" height="38" rx="19" fill="#2E6BFF" fill-opacity="0.16" stroke="#5B8DEF" stroke-opacity="0.5"/>
    <text x="75" y="25" text-anchor="middle" font-family="Arial,sans-serif" font-size="15" font-weight="700" letter-spacing="2" fill="#9DBCFF">AI FINANCE</text>
  </g>

  <!-- glowing shield emblem -->
  <g transform="translate(600,235)" filter="url(#glow)">
    <g transform="translate(-70,-92)">
      <path d="M70 0 L140 28 L140 86 C140 150 70 184 70 184 C70 184 0 150 0 86 L0 28 Z" fill="url(#accent)" opacity="0.95"/>
      <path d="M70 18 L122 39 L122 84 C122 132 70 158 70 158 C70 158 18 132 18 84 L18 39 Z" fill="#0B1020"/>
      <path d="M44 88 L62 108 L98 62" stroke="#5B8DEF" stroke-width="10" fill="none" stroke-linecap="round" stroke-linejoin="round"/>
    </g>
  </g>

  <g filter="url(#soft)">
    <rect x="150" y="432" width="900" height="158" rx="24" fill="url(#glass)" stroke="#FFFFFF" stroke-opacity="0.14"/>
    <rect x="150" y="432" width="900" height="2" fill="#FFFFFF" fill-opacity="0.22"/>
  </g>
  <text x="600" y="488" text-anchor="middle" font-family="'Space Grotesk',Arial,sans-serif" font-size="42" font-weight="700" fill="url(#title)" letter-spacing="-0.5">RWA Tokenization 2026:</text>
  <text x="600" y="538" text-anchor="middle" font-family="'Space Grotesk',Arial,sans-serif" font-size="42" font-weight="700" fill="url(#title)" letter-spacing="-0.5">Gold, Silver &amp; Real Estate</text>
  <text x="600" y="592" text-anchor="middle" font-family="Arial,sans-serif" font-size="22" fill="#9AA7C0">Tokenized assets explained</text>
</svg>
